<svg width="300" height="200" viewBox="0 0 300 200" xmlns="http://www.w3.org/2000/svg">
  <!-- Background -->
  <rect width="300" height="200" rx="10" fill="#F0F6FF"/>

  <!-- Data Network (left side) -->
  <g transform="translate(30,40)">
    <!-- Connecting lines -->
    <line x1="30" y1="30" x2="70" y2="50" stroke="#131A29" stroke-width="2"/>
    <line x1="70" y1="50" x2="50" y2="80" stroke="#131A29" stroke-width="2"/>
    <line x1="50" y1="80" x2="10" y2="60" stroke="#131A29" stroke-width="2"/>
    <line x1="10" y1="60" x2="30" y2="30" stroke="#131A29" stroke-width="2"/>

    <!-- Nodes -->
    <circle cx="30" cy="30" r="5" fill="#4A90E2" stroke="#131A29" stroke-width="2"/>
    <circle cx="70" cy="50" r="5" fill="#4A90E2" stroke="#131A29" stroke-width="2"/>
    <circle cx="50" cy="80" r="5" fill="#4A90E2" stroke="#131A29" stroke-width="2"/>
    <circle cx="10" cy="60" r="5" fill="#4A90E2" stroke="#131A29" stroke-width="2"/>
    <circle cx="55" cy="35" r="3" fill="#4A90E2" stroke="#131A29" stroke-width="1"/>
  </g>

  <!-- Bar Chart (right side) -->
  <g transform="translate(180,60)">
    <!-- Bars -->
    <rect x="0" y="20" width="10" height="30" fill="#FFB400"/>
    <rect x="20" y="10" width="10" height="40" fill="#FFB400"/>
    <rect x="40" y="0" width="10" height="50" fill="#FFB400"/>
    <!-- Line chart overlay -->
    <polyline points="5,50 15,40 25,30 45,10" fill="none" stroke="#131A29" stroke-width="2"/>
  </g>

  <!-- Dashed connector (suggesting data flow) -->
  <line x1="90" y1="50" x2="180" y2="80" stroke="#131A29" stroke-width="2" stroke-dasharray="4,2"/>
</svg>
