<svg width="744" height="367" viewBox="0 0 744 367" fill="none" xmlns="http://www.w3.org/2000/svg">
<path d="M430.988 121.344C436.254 108.437 448.807 100 462.747 100V100C476.888 100 489.579 108.678 494.71 121.854L577.16 333.593C582.856 348.22 572.066 364 556.369 364V364C547.25 364 539.049 358.45 535.658 349.984L469.25 184.179C466.928 178.383 458.755 178.296 456.311 184.041L385.479 350.488C381.992 358.681 373.948 364 365.044 364V364C349.268 364 338.522 348.011 344.481 333.404L430.988 121.344Z" fill="white"/>
<path d="M626 122C626 109.85 635.85 100 648 100V100C660.15 100 670 109.85 670 122V342C670 354.15 660.15 364 648 364V364C635.85 364 626 354.15 626 342V122Z" fill="white"/>
<path d="M670 18.1459C670 14.7196 672.48 11.7968 675.861 11.2392L735.861 1.34252C740.124 0.639323 744 3.92837 744 8.24919V73.913C744 78.5047 739.654 81.8529 735.214 80.6812L675.214 64.8466C672.141 64.0356 670 61.2564 670 58.0783V18.1459Z" fill="url(#paint0_linear_196_72)"/>
<rect x="430.237" y="275.355" width="47.8356" height="47.8356" rx="5" transform="rotate(-19.8386 430.237 275.355)" fill="url(#paint1_linear_196_72)"/>
<path d="M231.104 265.249H159.383V223.859H231.104C242.834 223.859 252.333 221.943 259.601 218.111C266.996 214.15 272.415 208.785 275.858 202.014C279.301 195.116 281.022 187.26 281.022 178.445C281.022 169.886 279.301 161.902 275.858 154.492C272.415 147.083 266.996 141.079 259.601 136.48C252.333 131.881 242.834 129.582 231.104 129.582H176.596V340.702C176.596 355.226 164.822 367 150.298 367V367C135.774 367 124 355.226 124 340.702V88H231.104C252.78 88 271.268 91.8963 286.568 99.6889C301.996 107.354 313.727 118.021 321.76 131.69C329.92 145.231 334 160.688 334 178.062C334 196.074 329.92 211.595 321.76 224.626C313.727 237.656 301.996 247.684 286.568 254.71C271.268 261.736 252.78 265.249 231.104 265.249Z" fill="white"/>
<path d="M125.87 88V340.935C125.87 355.33 137.54 367 151.935 367V367C166.33 367 178 355.33 178 340.935V88H125.87ZM35.0754 223.605C23.7652 223.605 14.5964 232.774 14.5964 244.084V244.084C14.5964 255.395 23.7652 264.564 35.0754 264.564H139.519V223.605H35.0754ZM20.4791 88C9.1688 88 0 97.1688 0 108.479V108.479C0 119.789 9.16879 128.958 20.4791 128.958H139.519V88H20.4791Z" fill="white"/>
<defs>
<linearGradient id="paint0_linear_196_72" x1="707" y1="0" x2="707" y2="83" gradientUnits="userSpaceOnUse">
<stop stop-color="#4B66E0"/>
<stop offset="1" stop-color="#29387A"/>
</linearGradient>
<linearGradient id="paint1_linear_196_72" x1="454.155" y1="275.355" x2="454.155" y2="323.19" gradientUnits="userSpaceOnUse">
<stop stop-color="#4B66E0"/>
<stop offset="1" stop-color="#29387A"/>
</linearGradient>
</defs>
</svg>
